<?xml version="1.0" encoding="utf-8"?>
<!-- Generator: Adobe Illustrator 19.0.0, SVG Export Plug-In . SVG Version: 6.00 Build 0)  -->
<svg version="1.1" id="Слой_1" xmlns="http://www.w3.org/2000/svg" xmlns:xlink="http://www.w3.org/1999/xlink" x="0px" y="0px"
	 viewBox="108 55.6 368.1 88.8" style="enable-background:new 108 55.6 368.1 88.8;" xml:space="preserve">
<style type="text/css">
	.st0{fill:#9FC9EC;}
	.st1{fill:#F4D3AA;}
	.st2{fill:#6290C3;}
	.st3{fill:#78A6D1;}
	.st4{fill:#FFFFFF;}
	.st5{opacity:0.3;}
	.st6{fill:#EEF3F9;}
	.st7{opacity:0.9;}
	.st8{fill:#F0F2F8;}
	.st9{fill:#EDF0F7;}
	.st10{fill:#EEF1F8;}
	.st11{fill:#C2CFE6;}
	.st12{fill:#CAD5E9;}
	.st13{fill:#C5D2E7;}
	.st14{fill:#CDD7EA;}
	.st15{fill:#DAE1EF;}
	.st16{fill:#D5DEED;}
	.st17{fill:#DFE5F1;}
	.st18{fill:#E7EBF5;}
	.st19{fill:#4E5057;}
	.st20{fill:#4F5057;}
	.st21{fill:#DABD9D;}
	.st22{fill:#336390;}
	.st23{fill:#5DC0DE;}
</style>
<g>
	<circle class="st0" cx="152.4" cy="100" r="44.4"/>
	<g>
		<g id="XMLID_62_">
			<g>
				<path id="XMLID_64_" class="st1" d="M152.2,129.4c-0.3-0.3-0.6-0.5-1-0.6v-8.3H150v7.7c-1.1-0.6-2.5-0.4-3.4,0.6
					c-1.1,1.2-0.2,4.5-0.2,4c0-0.3,0.5-0.8,1.2-1.2c0,1.2,0.4,2.3,0.4,1.9C148.1,132.5,153.3,130.4,152.2,129.4z"/>
				<path class="st2" d="M152.4,129.2c-0.2-0.2-0.8-0.4-0.9-0.6s0-0.6,0-0.8c0-1,0-1.9,0-2.9c0-1.5,0-3,0-4.5c0-0.1-0.1-0.2-0.2-0.2
					c-0.4,0-0.8,0-1.2,0c-0.1,0-0.3,0.1-0.3,0.2c0,2.6,0,5.2,0,7.7c0.1-0.1,0.3-0.1,0.4-0.2c-1.5-0.7-3.7-0.2-4.2,1.5
					c-0.2,0.7-0.2,1.6-0.1,2.3c0,0.3,0.1,1.1,0.4,1.2c0.2,0.1,0.3,0,0.4-0.1c0.3-0.5,0.6-0.8,1.1-1.2c-0.1,0-0.3-0.1-0.4-0.1
					c0,0.4,0,2,0.5,2.2c0.2,0,0.4,0,0.4-0.2C148.6,132.5,153.7,130.6,152.4,129.2c-0.1-0.2-0.6,0.1-0.4,0.3c0.6,0.7-1.8,2-2.3,2.3
					c-0.7,0.4-1.7,1-1.9,1.9c0.1-0.1,0.3-0.1,0.4-0.2c-0.1-0.1-0.2-1.8-0.2-1.9c0-0.2-0.3-0.2-0.4-0.1c-0.6,0.4-0.9,0.8-1.3,1.4
					c0.1,0,0.3-0.1,0.4-0.1c0,0-0.1-0.6-0.2-0.8c-0.1-0.5-0.1-1.1-0.1-1.6c0.1-1.8,2-2.7,3.6-1.9c0.1,0.1,0.4,0,0.4-0.2
					c0-2.6,0-5.2,0-7.7c-0.1,0.1-0.2,0.1-0.3,0.2c0.4,0,0.8,0,1.2,0c-0.1-0.1-0.2-0.1-0.2-0.2c0,2.8,0,5.5,0,8.3
					c0,0.1,0,0.1,0.1,0.2c0.3,0.1,0.6,0.3,0.9,0.6C152.2,129.7,152.7,129.4,152.4,129.2z"/>
			</g>
			<g>
				<path id="XMLID_63_" class="st1" d="M152.9,129.6c0.3-0.3,0.6-0.5,1-0.6v-8.3h1.1v7.7c1.1-0.6,2.5-0.4,3.4,0.6
					c1.1,1.2,0.2,4.5,0.2,4c0-0.3-0.5-0.8-1.2-1.2c0,1.2-0.4,2.3-0.4,1.9C157,132.7,151.8,130.6,152.9,129.6z"/>
				<path class="st2" d="M153.1,129.6c0.2-0.2,0.5-0.4,0.8-0.5c0.1,0,0.2-0.1,0.2-0.2c0-2.8,0-5.5,0-8.3c-0.1,0.1-0.2,0.1-0.4,0.2
					c0.2,0,1-0.1,1.1,0c-0.2-0.2-0.1,0.3-0.1,0.4c0,0.9,0,1.7,0,2.6c0,1.6,0,3.1,0,4.7c0,0.1,0.4,0,0.4,0c1.6-0.8,3.4,0.4,3.6,2.1
					c0,0.5,0,1.1-0.1,1.6c0,0.2-0.3,0.8-0.1,0.8c0.1,0,0.2,0,0.4,0c-0.3-0.6-0.6-0.9-1.2-1.3c-0.1-0.1-0.5,0-0.5,0.1
					c0,0.4-0.1,0.9-0.2,1.3c-0.1,0.3-0.3,0.6,0,0.5c0.1,0,0.2,0,0.3,0C157.1,132.7,152.3,130.5,153.1,129.6c0.2-0.2-0.3-0.1-0.4,0
					c-1.1,1.2,3.9,3.1,4.1,4.3c0,0.1,0.2,0.1,0.3,0c0.7-0.2,0.6-1.6,0.6-2.1c-0.2,0-0.3,0.1-0.5,0.1c0.5,0.4,0.9,0.7,1.2,1.3
					c0.1,0.1,0.3,0,0.4,0c0.3-0.1,0.4-0.7,0.4-1c0.1-0.8,0.2-1.7,0-2.5c-0.5-1.7-2.8-2-4.3-1.3c0.1,0,0.3,0,0.4,0c0-2.6,0-5.2,0-7.7
					c0-0.1-0.1-0.1-0.2-0.1c-0.4,0-0.8,0-1.2,0c-0.1,0-0.4,0.1-0.4,0.2c0,2.8,0,5.5,0,8.3c0.1-0.1,0.1-0.1,0.2-0.2
					c-0.4,0.2-0.7,0.4-1.1,0.6C152.4,129.7,152.9,129.7,153.1,129.6z"/>
			</g>
		</g>
		<g>
			<path class="st3" d="M179.6,95.5c-0.8-1.7-2.6-2.6-4.3-2.4c-0.4,0.1-0.9,0.2-1.2,0.5c0-5.1-0.2-9.9-0.5-14.6c0-1.8-0.8-3.5-2-4.7
				c-0.2-0.2-0.4-0.4-0.7-0.6c0-0.1-0.1-0.3-0.1-0.4c-0.7-2-0.1-3.7-0.8-4.6c-1,0-4.2,0.5-5.9,1.3c-1,0.5-1.8,1.1-2.4,1.7
				c-1.8-0.2-3.7-0.3-5.7-0.4c-1.2-0.3-2.4-0.7-3.8-1.2c-2.6-1.1-4.7-2.5-6.1-3.6l5,4.4c-0.8-0.2-1.7-0.5-2.5-0.9
				c-2.6-1.1-4.7-2.5-6.1-3.6l5.6,4.9c-1.4,0.1-2.7,0.1-4,0.3c-0.6-0.6-1.5-1.3-2.7-1.9c-1.6-0.8-4.9-1.3-5.9-1.3
				c-0.7,0.8,0,2.6-0.8,4.6c0,0.1-0.1,0.2-0.1,0.3c-0.5,0.3-0.9,0.6-1.3,1c-1.9,1.9-2,4.3-2,4.7c-0.4,4.6-0.6,9.4-0.7,14.6
				c-0.4-0.2-0.8-0.4-1.2-0.4c-1.7-0.3-3.5,0.7-4.3,2.4c-0.7,1.9-1.6,5.5-1.1,10c0.5,4.6,2.4,8,3.4,9.6c1.2-2.2,2.4-5.1,3.5-8.4
				c0,0,0,0,0-0.1c0.1,2.3,0.3,4.6,0.5,6.8c0,1.8,0.8,3.5,2,4.7c1.9,1.9,4.3,2,4.7,2c4.6,0.5,9.7,0.8,15.2,0.7
				c4.8,0,9.3-0.3,13.4-0.7c1.8,0,3.5-0.8,4.7-2c1.9-1.9,2-4.3,2-4.7c0.1-2.2,0.2-4.4,0.3-6.6c1,3.3,2.3,6.1,3.4,8.3
				c1.1-1.7,2.9-5,3.4-9.6C181.2,101,180.2,97.4,179.6,95.5z"/>
			<path class="st2" d="M180.1,95.9c-1.2-2.2-4.3-4-6.7-2.7c0.4,0.3,0.7,0.5,1.1,0.8c0-4.1-0.1-8.2-0.3-12.3c-0.1-1.8,0-3.6-0.8-5.3
				c-0.3-0.7-0.8-1.3-1.4-1.9c-0.7-0.7-0.9-1.4-1-2.4c-0.1-1.2,0.2-2.5-0.8-3.3c-0.3-0.2-0.5-0.4-0.8-0.5c-0.5-0.1-1.2,0.1-1.7,0.2
				c-1.4,0.2-2.9,0.5-4.1,1.2c-0.7,0.3-1.3,0.8-1.9,1.3c-0.4,0.3-0.6,0.3-1.1,0.2c-0.5,0-1.1-0.1-1.6-0.1c-1.1-0.1-2.3,0-3.4-0.2
				c-1-0.2-2-0.6-2.9-0.9c-2-0.8-4.1-1.8-5.8-3.1c-0.3-0.3-0.7-0.5-1.1-0.8c1.4,1.2,2.7,2.4,4.1,3.6c0.2,0.2,0.6,0.4,0.8,0.7
				l0.1,0.1c0,0-1.5-0.5-1.6-0.5c-2.1-0.8-4.2-1.8-6-3.2c-0.3-0.3-0.7-0.5-1.1-0.8c1.2,1.1,2.4,2.1,3.6,3.2c0.6,0.5,1.4,1,1.8,1.6
				l0.2,0.1c0,0.1-0.5,0-0.7,0.1c-1.1,0.1-2.2,0.1-3.3,0.2c0.4,0.3,0.7,0.5,1.1,0.8c-1.1-1.1-2.5-2.1-3.9-2.8
				c-0.9-0.4-1.8-0.6-2.8-0.8c-0.8-0.2-1.9-0.5-2.7-0.4c-0.4,0.1-0.5,0.3-0.5,0.7c-0.1,0.5-0.1,1-0.1,1.4c0,0.5,0,1-0.1,1.5
				c-0.1,0.3-0.1,0.7-0.3,1c-0.2,0.4-0.5,0.5-0.8,0.7c-1.5,1.2-2.4,3-2.6,5c-0.2,2.4-0.4,4.7-0.5,7.1c-0.1,1.2-0.1,2.5-0.2,3.7
				c0,0.7,0,1.4-0.1,2.1c0,0.3,0,0.7,0,1c0,0.2,0,0.5,0,0.7c0.1,0.4,0,0.5-0.3,0.2c-0.3,0-0.6-0.2-0.9-0.3c-0.2,0-0.5-0.1-0.7,0
				c-0.5,0-1,0.1-1.4,0.3c-1,0.4-1.8,1.2-2.2,2.2c-0.7,1.7-1,3.6-1.1,5.4c-0.4,5,0.8,10,3.5,14.1c0.1,0.1,1.1,0.7,1.1,0.8
				c1.4-2.7,2.6-5.5,3.5-8.5c-0.4-0.3-0.7-0.5-1.1-0.8c0.1,2.5,0.2,5.2,0.5,7.7c0.2,1.9,1.3,3.5,2.8,4.6c1.2,0.9,2.3,1.6,3.8,1.9
				c1.6,0.3,3.4,0.3,5,0.5c5,0.4,10,0.5,15,0.3c2.4-0.1,4.8-0.2,7.2-0.4c2.2-0.2,4.5-0.1,6.4-1.4c1.7-1.1,2.8-2.9,3-4.9
				c0.3-2.4,0.2-4.9,0.3-7.3c-0.4-0.3-0.7-0.5-1.1-0.8c0.9,2.9,2,5.6,3.4,8.3c0.1,0.1,1.1,0.8,1.1,0.8
				C181.5,109.8,182.4,102.5,180.1,95.9c-0.1-0.4-1-0.4-1.1-0.8c2.3,6.5,1.4,13.8-2.3,19.6c0.4,0.3,0.7,0.5,1.1,0.8
				c-1.4-2.7-2.5-5.4-3.4-8.3c-0.1-0.3-1.1-0.5-1.1-0.8c-0.1,2.3-0.2,4.5-0.3,6.8c-0.1,1.4-0.5,2.8-1.4,3.9c-1.2,1.5-3,2.5-4.9,2.6
				c-2.1,0.1-4.2,0.4-6.4,0.5c-4.8,0.3-9.5,0.3-14.3,0.1c-2.1-0.1-4.2-0.2-6.3-0.4c-1.3-0.1-2.8-0.1-4.1-0.5c-1-0.3-1.7-0.8-2.3-1.7
				c-0.6-0.8-1-1.8-1.2-2.8c-0.2-1.2-0.2-2.6-0.3-3.8c-0.1-1.4-0.2-2.8-0.3-4.1c0-0.2-1.1-0.6-1.1-0.8c-0.9,2.9-2.1,5.8-3.5,8.5
				c0.4,0.3,0.7,0.5,1.1,0.8c-3-4.7-4.2-10.5-3.3-16c0.4-2.3,1-5.1,3.6-5.9c0.6-0.2,1.2-0.2,1.9-0.1c0.1,0,1,0.4,1,0.4
				c0.1-0.1,0-1.4,0-1.6c0-1.8,0.1-3.6,0.2-5.5c0.1-2.8,0.2-5.7,0.6-8.5c0.2-1.2,0.7-2.4,1.5-3.4c0.5-0.6,1.1-0.9,1.6-1.4
				s0.6-1.7,0.6-2.4c0-0.6,0-1.3,0.1-1.9c0.1-0.7,0.3-0.7,0.9-0.6c1.2,0.1,2.4,0.3,3.5,0.7c0.6,0.2,1.2,0.3,1.7,0.6
				c0.2,0.1,1.4,0.9,0.9,0.5s0.1,0.1,0.3,0.3c0.1,0.1,0.3,0.3,0.4,0.4c0.2,0.2,0.5,0.4,0.8,0.6c0.5,0.4,1,0.2,1.7,0.1
				c0.3,0,2.7-0.2,2.7-0.2c0-0.1-0.3-0.3-0.3-0.3c-0.6-0.5-1.2-1.1-1.9-1.6c-1.1-1-2.3-2-3.4-3c-0.4-0.3-0.7-0.5-1.1-0.8
				c1.3,1,2.6,1.9,4,2.8c1.2,0.7,2.4,1.3,3.6,1.8c0.2,0.1,2,0.6,2.1,0.7c0,0-0.1-0.1-0.2-0.1c-0.3-0.3-0.7-0.6-1.1-0.9
				c-0.6-0.5-1.1-1-1.7-1.5c-0.7-0.6-1.4-1.2-2.1-1.8c-0.4-0.3-0.7-0.5-1.1-0.8c3.4,2.7,7.7,5.4,12.1,5.6c0.7,0,1.5,0.1,2.2,0.1
				s1.5,0.3,2.1,0.2c0.4-0.1,0.9-0.6,1.3-0.9c0.5-0.3,1-0.6,1.5-0.9c1.7-0.7,3.7-1.1,5.6-1.2c-0.4-0.3-0.7-0.5-1.1-0.8
				c0.5,0.7,0.4,1.6,0.4,2.4c0,0.8,0.1,1.9,0.5,2.6c0.3,0.5,0.9,0.8,1.3,1.3c0.3,0.4,0.6,0.8,0.8,1.3c0.4,0.9,0.6,1.9,0.6,2.9
				c0.2,4.8,0.4,9.6,0.4,14.5c0,0.1,1.1,0.8,1.1,0.8c0.8-0.4,1.8-0.6,2.7-0.4c1,0.2,1.3,0.6,1.8,1.5
				C179.2,95.5,179.9,95.6,180.1,95.9z"/>
		</g>
		<g>
			<path id="XMLID_61_" class="st4" d="M151.2,82.8c1.7,4.6,2.7,13.9-4.3,18.3c-6.2,3.9-14.4,1.9-18.3-4.3
				c-4.3-6.9,0.4-14.8,4.3-18.3c0.9-0.8,5.8-5.2,11.2-3.5C148.8,76.4,150.6,81.3,151.2,82.8z"/>
			<path class="st2" d="M150.6,82.8c1.5,4.2,1.9,9.2,0,13.3c-2.5,5.6-9.3,8.2-15,6c-2.7-1-5-2.9-6.5-5.4c-1.7-2.8-2.1-6.1-1.3-9.3
				c1.2-4.8,4.6-9.1,9-11.4c1.8-1,3.9-1.7,6-1.3c1.6,0.3,3.2,1.2,4.4,2.3C148.8,78.7,149.8,80.7,150.6,82.8c0.1,0.2,1.1,0,1.1,0
				c-0.8-2.1-1.8-4.1-3.4-5.7c-2.1-2-4.9-2.8-7.8-2.5c-5.4,0.5-10,4.8-12.3,9.4c-1.6,3.2-2.4,6.9-1.2,10.3c1,3.1,3.4,5.7,6.3,7.3
				c5,2.6,12,2,16.1-2c4.4-4.2,4.4-11.4,2.4-16.8C151.6,82.6,150.6,82.8,150.6,82.8z"/>
		</g>
		<g>
			<path id="XMLID_60_" class="st4" d="M154.3,83.3c-1.7,4.6-2.7,13.9,4.3,18.3c6.2,3.9,14.4,1.9,18.3-4.3
				c4.3-6.9-0.4-14.8-4.3-18.3c-0.9-0.8-5.8-5.2-11.2-3.5C156.7,76.9,154.9,81.8,154.3,83.3z"/>
			<path class="st2" d="M153.8,83.3c-1.7,4.7-2,10.6,0.8,14.9c3.3,5.1,10.3,6.6,15.8,4.7c2.9-1,5.4-3,7-5.6c1.9-3.1,2.1-6.9,1-10.3
				c-1.7-5-5.8-9.7-10.9-11.4c-3.2-1.1-6.9-0.7-9.6,1.4C155.9,78.7,154.7,81,153.8,83.3c0,0.1,1,0.3,1.1,0c0.7-1.8,1.6-3.6,2.9-5.1
				c2.3-2.5,5.5-3.6,8.7-2.5c4.7,1.5,8.5,5.7,10.4,10.1c1.2,2.9,1.6,6.2,0.5,9.3c-1,2.9-3.2,5.3-5.9,6.8c-5.2,2.8-12.2,1.5-15.7-3.5
				c-3-4.3-2.7-10.4-1-15.1C154.9,83.2,153.9,83.1,153.8,83.3z"/>
		</g>
		<g>
			<path id="XMLID_59_" class="st4" d="M152.5,103.1c-7.5,0-14.2,12.7-12.6,17.3c0,0.1,0,0.1,0.1,0.2c3.9,0.3,8.2,0.5,12.8,0.5
				c0,0,0,0,0.1,0h0.1h0.1c4.3,0,8.3-0.3,12-0.6c0-0.1,0.1-0.1,0.1-0.2C166.7,115.6,160,103.1,152.5,103.1z"/>
			<path class="st2" d="M152.7,103c-3.2,0-5.9,1.9-8,4.2c-2.3,2.6-4.2,5.8-5,9.2c-0.3,1.4-0.5,2.9,0,4.3l0,0
				c8.4,0.7,16.8,0.7,25.1-0.1c0.1,0,0.3,0,0.4-0.1c0.6-1.5,0.3-3.2-0.1-4.8c-0.6-2.1-1.5-4.1-2.7-5.8
				C160.3,106.5,156.9,103,152.7,103c-0.1,0-0.6,0.2-0.3,0.2c4.3,0.1,7.7,3.7,9.8,7.1c1.1,1.7,1.9,3.5,2.5,5.5
				c0.4,1.5,0.7,3.2,0.1,4.7c0.1,0,0.2-0.1,0.4-0.1c-4,0.4-8,0.6-12.1,0.6c-2.1,0-4.2,0-6.2-0.1c-0.9,0-1.8-0.1-2.8-0.1
				c-1.1-0.1-2.2,0-3.2-0.2c-0.7-0.1-0.7-0.4-0.8-1c-0.1-0.5-0.1-1,0-1.5c0.1-1.1,0.4-2.2,0.7-3.3c0.8-2.5,2.2-4.8,3.8-6.8
				c1.9-2.4,4.6-4.7,7.8-4.7C152.4,103.2,152.9,103,152.7,103z"/>
		</g>
		<g class="st5">
			<ellipse id="XMLID_58_" class="st6" cx="140.5" cy="89.3" rx="3.5" ry="5.9"/>
			<g class="st7">
				<g class="st7">
					<path class="st8" d="M143.5,92l0.1-0.2c0,0-0.1,0-0.1-0.1c0-0.2-0.2,0.4-0.4,0.9C143,92.7,143.2,92.6,143.5,92z"/>
					<path class="st9" d="M144.7,89.6c0-0.1,0-0.2,0-0.3l0,0C144.7,89.4,144.7,89.5,144.7,89.6z"/>
					<path class="st8" d="M144.1,90.2c0,0.2,0,0.4-0.1,0.5c0,0.2,0,0.3-0.1,0.5c0.1-0.2,0.1-0.3,0.2-0.4c0.1-0.1,0.2-0.3,0.2-0.5
						c0-0.1,0-0.3,0-0.5c0,0.1,0,0.1,0,0.2c0-0.1,0-0.2,0-0.2c0-0.1,0-0.1,0-0.1s0,0.2-0.1,0.4c0,0.2-0.1,0.4-0.1,0.6
						c0-0.2,0-0.5,0-0.7c0,0.1,0,0.1-0.1,0.2c0,0.1,0,0.2,0,0.3L144.1,90.2z"/>
					<path class="st8" d="M141.8,93.5L141.8,93.5c0.1-0.1,0.2-0.2,0.2-0.4l-0.1,0.1l-0.1,0.1C141.8,93.4,141.7,93.5,141.8,93.5h-0.1
						c0,0,0,0,0-0.1l0,0l-0.1,0.1h0.1c-0.1,0-0.1,0.1-0.2,0.1l-0.1,0.1C141.5,93.8,141.6,93.6,141.8,93.5z"/>
					<path class="st10" d="M140,94c0,0.1,0,0.1-0.1,0.1c0.1,0,0.2,0.1,0.2,0.1c0.1,0,0.2,0.1,0.2,0.1c-0.1,0.1,0.1,0.3,0.5,0.3
						c0.4,0,0.8-0.2,1-0.3s0.5-0.3,0.8-0.6c0.3-0.3,0.5-0.6,0.7-0.8c0-0.1,0-0.1,0.1-0.4c-0.1,0.1-0.2,0.3-0.2,0.5v0.1V93
						c0-0.1,0.1-0.3,0.2-0.4c0,0.1-0.1,0.1-0.1,0.1v-0.1c-0.2,0.2-0.3,0.4-0.5,0.6c-0.2,0.1-0.3,0.2-0.4,0.2l-0.1,0.1
						c-0.4,0.5-0.6,0.5-0.6,0.4c-0.2,0.2-0.5,0.4-0.7,0.4c-0.3,0-0.5-0.1-0.7-0.2h-0.1C140.1,94,140.1,94,140,94
						C140.1,94,140,94,140,94z"/>
					<path class="st11" d="M144.2,89.3c0.1,0,0.1-0.2,0.2-0.4c0-0.1,0.1-0.2,0.1-0.3s0-0.3,0.1-0.4c0.1-0.6,0-1.4-0.3-2.2
						c-0.3-0.8-0.7-1.6-1.3-2.3c-0.3-0.3-0.7-0.7-1.3-0.9c-0.5-0.2-1.1-0.3-1.7-0.2c0.1,0,0.1,0,0.2,0.1c0,0,0,0.1-0.1,0.1
						c-0.1,0-0.2,0.1-0.3,0.2c-0.1,0-0.1,0.1-0.2,0.1c-0.1,0-0.2,0.1-0.3,0.2c-0.1,0.1-0.2,0.1-0.3,0.2c-0.1,0.1-0.2,0.2-0.3,0.2
						c-0.1,0.1-0.2,0.2-0.3,0.2c-0.1,0.1-0.1,0.1-0.1,0.2c-0.3,0.4-0.4,0.7-0.5,1c-0.1,0.3-0.2,0.6-0.4,1.1c0.1-0.2,0.2-0.2,0.3-0.3
						c0.3-0.5,0.7-1.1,1.2-1.8c0.1-0.1,0.3-0.2,0.3-0.2c0.1,0,0.1,0-0.1,0.2c0.3-0.2,0.6-0.3,0.8-0.5c0.1,0,0.3-0.1,0.4-0.1h0.2h0.1
						h0.1c0.1,0,0.2,0,0.3,0s0.1,0,0.2,0.1c0.1,0,0.1,0,0.1,0.1c0,0,0.1,0,0.1,0.1c0.1,0.1,0.1,0.1,0.1,0.2c0,0.1-0.2,0.1,0,0.3
						c0,0.1,0.1,0.1,0.2,0.2c0.4,0.2,0.8,0.5,1.1,0.9c0.3,0.4,0.6,0.8,0.8,1.3c0.1,0.2,0.1,0.6,0.2,0.8c0.1,0.4,0.2,1,0.3,1.4
						C144.1,89.1,144.1,89.4,144.2,89.3z"/>
					<path class="st12" d="M136.2,88.7c0-0.3,0-0.6,0-1c-0.1,0.5-0.2,1-0.3,1.6c0,0.1,0.1,0.3,0.1,0.4
						C136.1,89.3,136.1,88.9,136.2,88.7z"/>
					<path class="st12" d="M140.6,84c0.1-0.1,0-0.1-0.1-0.1s-0.1,0-0.2,0h-0.1h-0.1c-0.6,0.2-0.9,0.5-1.3,0.7c0,0-0.2,0.2-0.3,0.3
						c0,0-0.2,0.1-0.1-0.1c-0.1,0.1-0.1,0.2-0.2,0.3l-0.1,0.1v0.1c-0.2,0.3,0.1-0.3-0.1-0.1c-0.3,0.6-0.5,1.2-0.6,1.6
						c-0.1,0.2-0.2,0.3-0.2,0.3c-0.1,0-0.1,0-0.1-0.1c0-0.1,0-0.3,0-0.4c0-0.2,0-0.3,0-0.4c0-0.3,0.3-0.9,0.6-1.4
						c-0.2,0.1-0.6,0.8-0.4,0.4c0.1-0.2,0.2-0.4,0.3-0.6c0-0.1,0.1-0.2,0.1-0.3s0.1-0.2,0.1-0.2c-0.4,0.5-0.7,1.1-0.9,1.7
						c-0.2,0.6-0.3,1.1-0.4,1.4c0,0.1-0.1,0.2-0.1,0.3c0,0.1-0.1,0.2-0.1,0.3c0,0.4,0,0.7,0,1c-0.1,0.2-0.2,0.6-0.2,1
						c0,0.2,0.1,0.3,0.1,0.4c0.1,0.2,0.1-0.1,0.1-0.4c0-0.1,0-0.2,0-0.3s0-0.2,0-0.3c0-0.2,0-0.3,0.1-0.4c0,0.7,0.1,1.2,0.2,1.3
						c0.1,0.2,0.2,0.1,0.3-0.1c0.1-0.2,0.1-0.3,0.1-0.5c0.1-0.2,0.1-0.4,0.2-0.7c0-0.1,0-0.3,0.1-0.5c0-0.2,0-0.4,0.1-0.6
						c0,0.1,0,0.5,0,0.4c0.2-0.7,0.4-0.9,0.6-1.7c0,0,0.1,0,0,0.2c0-0.2,0.1-0.3,0.1-0.3s0.1-0.1,0.2-0.3c0.1-0.1,0.2-0.1,0.3-0.1
						s0.2-0.1,0.3-0.4c0,0,0-0.1,0.1-0.1c0,0,0-0.1,0.1-0.1l0.1-0.1c0.2-0.3,0.5-0.7,0.9-0.8c0.3-0.1,0.6-0.1,0.9-0.1h-0.1
						C140.8,84.1,140.7,84.1,140.6,84C140.7,84.1,140.6,84,140.6,84z"/>
					<path class="st13" d="M141.4,84.1c-0.2-0.2,0-0.2,0-0.3c0,0,0-0.1-0.1-0.2c0,0-0.1,0-0.1-0.1c0,0-0.1,0-0.1-0.1
						c-0.1,0-0.1,0-0.2-0.1c-0.1,0-0.2,0-0.3,0h-0.1h-0.1h-0.2c-0.1,0-0.3,0.1-0.4,0.1c-0.3,0.1-0.5,0.2-0.8,0.5
						c0.2-0.2,0.2-0.2,0.1-0.2c-0.1,0-0.3,0.1-0.3,0.2c-0.6,0.7-0.9,1.3-1.2,1.8c-0.1,0.2-0.2,0.2-0.3,0.3c0.1-0.5,0.3-0.8,0.4-1.1
						c0.1-0.3,0.2-0.6,0.5-1c0,0,0.1-0.1,0.1-0.2c0.1-0.1,0.2-0.2,0.3-0.2c0.1-0.1,0.2-0.2,0.3-0.2c0.1-0.1,0.2-0.1,0.3-0.2
						c0.1-0.1,0.2-0.1,0.3-0.2c0.1,0,0.1-0.1,0.2-0.1c0.1-0.1,0.2-0.1,0.3-0.2c0.1,0,0.1-0.1,0.1-0.1s-0.1-0.1-0.2-0.1
						c-0.2,0-0.4,0.1-0.6,0.2c-0.1,0-0.2,0.1-0.3,0.1l-0.3,0.2c-0.2,0.1-0.3,0.2-0.5,0.4c-0.1,0.1-0.3,0.3-0.4,0.4
						c0,0.1-0.1,0.1-0.1,0.2c0,0.1-0.1,0.2-0.1,0.2c0,0.1-0.1,0.2-0.1,0.3c-0.1,0.2-0.2,0.4-0.3,0.6c-0.1,0.4,0.3-0.3,0.4-0.4
						c-0.3,0.5-0.7,1.1-0.6,1.4c0,0.1,0,0.3,0,0.4c0,0.2,0,0.3,0,0.4c0,0.1,0.1,0.2,0.1,0.1c0.1,0,0.1-0.2,0.2-0.3
						c0.2-0.4,0.4-0.9,0.6-1.6c0.2-0.2-0.1,0.4,0.1,0.1V85l0.1-0.1c0.1-0.1,0.1-0.2,0.2-0.3c-0.1,0.2,0.1,0,0.1,0.1
						c0.1-0.1,0.3-0.3,0.3-0.3c0.4-0.2,0.7-0.5,1.3-0.7h0.1h0.1c0.1,0,0.1,0,0.2,0c0.1,0,0.2,0.1,0.1,0.1c0,0,0,0,0.1,0h0.1h0.1
						c0.2,0,0.5,0.1,0.7,0.2C141.5,84.3,141.5,84.2,141.4,84.1z"/>
					<path class="st14" d="M138.9,85.3c-0.2,0.2-0.2,0.3-0.3,0.4c-0.1,0-0.2,0-0.3,0.1c-0.1,0.2-0.1,0.2-0.2,0.3
						c0,0-0.1,0.1-0.1,0.3c0.1-0.2,0-0.2,0-0.2c-0.3,0.8-0.4,1.1-0.6,1.7c0,0.1,0-0.3,0-0.4c0,0.2,0,0.4-0.1,0.6
						c0,0.2,0,0.4-0.1,0.5c-0.1,0.3-0.1,0.5-0.2,0.7c0,0.2-0.1,0.4-0.1,0.5c-0.1,0.2-0.2,0.3-0.3,0.1c-0.1-0.2-0.2-0.6-0.2-1.3
						c0,0.1-0.1,0.2-0.1,0.4c0,0.1,0,0.2,0,0.3s0,0.2,0,0.3c0,0.3,0,0.6-0.1,0.4c0-0.1-0.1-0.2-0.1-0.4c0,0.5,0.1,1.1,0.2,1.6
						c0.1,0.6,0.3,1.1,0.5,1.7c0.1,0,0.1,0,0-0.2c0-0.2-0.1-0.3-0.1-0.4s0-0.2,0-0.3s0-0.2,0.1-0.3c0.1-0.1,0.2-0.2,0.2-0.7
						c0-0.1,0-0.3,0-0.4c0-0.2,0-0.3,0-0.4c0.1-0.4,0.3,0,0.4-0.4v-0.7c0.1-0.2,0.2-0.1,0.3-0.6c0-0.2,0.1-0.3,0.1-0.4
						s0.1-0.3,0.1-0.4c0.1-0.2,0.2-0.4,0.2-0.5c0.1-0.1,0.2-0.3,0.2-0.4l0.1-0.2l0.1-0.2c0.1-0.6,0.3-1.1,0.6-1.6l-0.1,0.1
						C139,85.2,139,85.2,138.9,85.3C139,85.3,138.9,85.3,138.9,85.3z"/>
					<path class="st15" d="M144.1,94.5c0-0.1,0.1-0.2,0.1-0.2c0-0.1,0.1-0.2,0.1-0.2c0.1-0.2,0.2-0.3,0.2-0.5
						c-0.4,0.7-0.8,1.1-1.1,1.4c-0.2,0.1-0.4,0.3-0.5,0.3c-0.2,0.1-0.3,0.1-0.5,0.2c0,0-0.2,0.1-0.5,0.2c-0.1,0.1-0.3,0.1-0.4,0.2
						c-0.2,0.1-0.4,0.1-0.5,0.1c-0.2,0-0.4,0-0.6,0s-0.4,0-0.5-0.1c-0.1,0-0.3-0.1-0.4-0.1s-0.2-0.1-0.2-0.1h0.1c0.1,0,0.2,0,0.3,0
						c0.2,0,0.5,0.1,0.8,0c-0.1,0-0.3,0-0.4-0.1c-0.1,0-0.2-0.1-0.3-0.1c-0.1,0-0.2-0.1-0.3-0.1c-0.1-0.1-0.1-0.1-0.2-0.1
						c-0.1-0.1-0.2-0.2-0.3-0.3l-0.1-0.1l-0.1-0.1c-0.1-0.1-0.1-0.2-0.2-0.3c0-0.1-0.1-0.2-0.1-0.3c-0.1-0.1-0.1-0.2-0.1-0.3
						c-0.1-0.1-0.1-0.3-0.2-0.4c-0.2-0.6-0.2-1.2-0.2-1.6c0-0.2,0-0.4,0.1-0.6c0.1-0.1,0.1-0.2,0.2-0.3c0.1-0.1,0.1-0.8,0.1-1.5
						c-0.1-0.2-0.1-0.5-0.1-0.8c0,0.2-0.1,0.3-0.1,0.5c0,0.1-0.1,0.2-0.1,0.3c-0.2,0.1-0.3,0.3-0.4,0.6c-0.1,0.3-0.1,0.8,0,1.5
						c0.1,0.5-0.3,0.2-0.3,0.5c0,0.1,0,0.3,0,0.4c0,0.1,0,0.2,0,0.3c0,0.2,0.1,0.4,0.1,0.6c0,0.2,0.1,0.4,0.1,0.6
						c0.1,0.2,0.1,0.4,0.2,0.6c0,0.1,0.1,0.2,0.2,0.4c0.1,0.2,0.2,0.3,0.4,0.5c0.4,0.2,0.8,0.5,1.2,0.6c0.2,0.1,0.5,0.1,0.7,0.1
						c0.1,0,0.2,0,0.4,0c0.1,0,0.2,0,0.4,0s0.3-0.1,0.5-0.1c0.1-0.1,0.3-0.1,0.4-0.2c0.2-0.1,0.4-0.2,0.5-0.3
						c0.1-0.1,0.2-0.1,0.3-0.2c0.1-0.1,0.2-0.1,0.3-0.1c0.1-0.1,0.3-0.1,0.4-0.3c0.1-0.1,0.2-0.1,0.2-0.2s0.1-0.1,0.1-0.2
						C144,94.7,144.1,94.6,144.1,94.5z"/>
					<path class="st16" d="M137.7,88.7c0,0.5-0.2,0.4-0.3,0.6c-0.1,0.1,0,0.7,0,0.7c-0.1,0.4-0.3,0-0.4,0.4c0,0,0,0.2,0,0.4
						c0,0.2,0,0.3,0,0.4c0,0.5-0.1,0.6-0.2,0.7c0,0.1-0.1,0.1-0.1,0.3c0,0.1,0,0.1,0,0.3c0,0.1,0,0.2,0.1,0.4c0,0.2,0,0.2,0,0.2l0,0
						c-0.2-0.1,0.1,0.5,0.2,0.7c0.1,0.2,0.2,0.4,0.3,0.5c0.1,0.1,0.2,0.3,0.3,0.4c0.1,0.1,0.2,0.2,0.3,0.4c0.1,0.1,0.2,0.3,0.4,0.4
						c0.1,0.1,0.2,0.2,0.4,0.3c-0.2-0.2-0.3-0.4-0.4-0.5c-0.1-0.2-0.2-0.3-0.2-0.4c-0.1-0.2-0.2-0.4-0.2-0.6s-0.1-0.4-0.1-0.6
						s-0.1-0.4-0.1-0.6c0-0.1,0-0.2,0-0.3s0-0.3,0-0.4c0-0.3,0.3,0,0.3-0.5c-0.1-0.7-0.1-1.2,0-1.5c0.1-0.3,0.2-0.5,0.4-0.6
						c0,0,0.1-0.1,0.1-0.3c0-0.1,0.1-0.3,0.1-0.5c0-0.2,0-0.4,0-0.6c0-0.1,0-0.2,0.1-0.3c0-0.1,0-0.1,0-0.1l0,0c0-0.2,0-0.4,0.1-0.5
						c0-0.2,0-0.3,0.1-0.5l-0.1,0.2l-0.1,0.2c-0.1,0.1-0.2,0.2-0.2,0.4c-0.1,0.1-0.2,0.3-0.2,0.5c0,0.1-0.1,0.2-0.1,0.4
						C137.7,88.4,137.7,88.6,137.7,88.7z"/>
					<path class="st17" d="M145,92.6c0-0.2,0.1-0.4,0.1-0.6c0.1-0.5,0.1-0.4,0.2-0.7l0,0l0,0c0-0.1,0-0.1,0-0.2
						c-0.1,0.4-0.2,0.5-0.3,0.5c-0.1,0.3-0.2,0.6-0.2,0.7c-0.1,0.1-0.1,0.2-0.2,0.2l-0.2,0.2c-0.1,0.2-0.3,0.3-0.4,0.5
						c-0.1,0.1-0.2,0.2-0.3,0.3s-0.2,0.2-0.3,0.4c-0.1,0.1-0.2,0.3-0.4,0.5c-0.2,0.2-0.3,0.3-0.6,0.5c-0.4,0.3-0.4,0.2-0.5,0.1
						c0,0-0.1-0.1-0.2-0.1c-0.1,0-0.1,0-0.2,0s-0.2,0-0.3,0.1c-0.2,0-0.4,0.1-0.7,0.1c-0.2,0-0.4-0.1-0.5-0.2c0-0.1,0.1-0.1,0.1-0.2
						v-0.1c0,0-0.1-0.1-0.2-0.1c-0.3-0.2-0.6-0.4-0.8-0.7c0-0.1-0.1-0.1-0.1-0.2s-0.1-0.1-0.1-0.2c0-0.1-0.1-0.1-0.1-0.2v-0.1V93
						c-0.1-0.3-0.1-0.5-0.1-0.7c0-0.2,0.1-0.3,0.1-0.4c-0.2-0.6-0.4-1.4-0.6-2.2c-0.1,0.6,0,1.4-0.1,1.5c-0.1,0-0.1,0.1-0.2,0.3
						c0.1,0,0.1,0.2,0.1,0.4c0,0.4,0.1,1,0.3,1.6c0.1,0.1,0.1,0.3,0.2,0.4s0.1,0.2,0.1,0.3s0.1,0.2,0.1,0.3s0.1,0.2,0.2,0.3l0.1,0.1
						l0.1,0.1c0.1,0.1,0.2,0.2,0.3,0.3c0.1,0,0.1,0.1,0.2,0.1c0.1,0.1,0.2,0.1,0.3,0.1c0.1,0,0.2,0.1,0.3,0.1c0.1,0,0.3,0.1,0.4,0.1
						c-0.3,0-0.6,0-0.8,0c-0.1,0-0.2,0-0.3,0c-0.1,0-0.1,0-0.1,0s0.1,0.1,0.2,0.1s0.2,0.1,0.4,0.1c0.1,0,0.3,0.1,0.5,0.1
						c0.2,0,0.4,0,0.6,0s0.4-0.1,0.5-0.1c0.2-0.1,0.3-0.1,0.4-0.2c0.2-0.1,0.4-0.2,0.5-0.2c0.1,0,0.3-0.1,0.5-0.2
						c0.2-0.1,0.3-0.2,0.5-0.3c0.4-0.3,0.8-0.7,1.1-1.4c0.1-0.2,0.2-0.3,0.2-0.5C144.9,92.9,145,92.7,145,92.6z"/>
					<path class="st18" d="M140,94.4c0.1,0.1,0.2,0.1,0.2,0.1v0.1c0,0.1-0.2,0.1-0.1,0.2c0,0.1,0.2,0.1,0.5,0.2c0.2,0,0.5,0,0.7-0.1
						c0.1,0,0.2-0.1,0.3-0.1c0.1,0,0.1,0,0.2,0c0.1,0,0.1,0,0.2,0.1s0.1,0.2,0.5-0.1c0.2-0.2,0.4-0.3,0.6-0.5
						c0.2-0.2,0.3-0.3,0.4-0.5c0.1-0.1,0.2-0.3,0.3-0.4c0.1-0.1,0.2-0.2,0.3-0.3c0.1-0.2,0.3-0.3,0.4-0.5l0.2-0.2
						c0.1-0.1,0.1-0.2,0.2-0.2c0.1-0.1,0.2-0.4,0.2-0.7l-0.1-0.1c0,0-0.1,0.1-0.2,0.4c-0.1,0.2-0.2,0.5-0.3,0.7
						c-0.1,0.1-0.1,0-0.1-0.2c0-0.2,0-0.4,0-0.7c0-0.1,0-0.2,0-0.2l0,0c0-0.1,0-0.1,0-0.2c-0.1,0.2-0.1,0.3-0.2,0.4
						c0,0.1,0,0.1-0.1,0.2v-0.1c-0.1,0.2-0.2,0.3-0.3,0.4c-0.1,0.1-0.2,0.2-0.3,0.3c0,0.1,0,0.1-0.1,0.2c0-0.1,0-0.1,0.1-0.2
						c-0.1,0.1-0.2,0.3-0.3,0.4c-0.1,0.2-0.2,0.3-0.3,0.5c-0.1,0.1-0.2,0.3-0.4,0.4c-0.1,0.1-0.1,0.1-0.2,0.1
						c-0.1,0-0.1,0.1-0.2,0.1c-0.2,0.1-0.6,0.3-1,0.4H141h-0.1c-0.1,0-0.1,0-0.2,0s-0.1-0.1-0.1-0.2c-0.1,0-0.2,0-0.2,0h-0.1h-0.1
						l0.1-0.1c-0.1,0-0.1-0.1-0.2-0.1c0-0.1-0.1-0.1-0.1-0.1h0.1c0,0,0.1,0,0.1,0.1l0,0l0,0c-0.1,0-0.1-0.1-0.2-0.1
						c-0.1,0-0.2,0-0.3,0h0.1c0,0,0,0,0.1,0h0.1h0.1c-0.1-0.1-0.2-0.2-0.3-0.4c0,0-0.1,0-0.1-0.1c0,0,0.1,0,0.1,0.1v-0.1
						c0,0,0,0-0.1,0c0,0,0,0-0.1-0.1c0,0-0.1-0.1-0.2-0.1c-0.1-0.1-0.2-0.2-0.3-0.4c0-0.1,0-0.1,0-0.2s0-0.1,0-0.2
						c0-0.1-0.1-0.3-0.1-0.5c-0.1,0.1-0.1,0.2-0.1,0.4c0,0.2,0,0.4,0.1,0.7V93v0.1c0,0.1,0.1,0.1,0.1,0.2s0.1,0.1,0.1,0.2
						c0,0.1,0.1,0.2,0.1,0.2C139.5,94,139.7,94.3,140,94.4z"/>
				</g>
			</g>
		</g>
		<g>
			<path id="XMLID_57_" class="st19" d="M142,89.2c-0.7,0-1.3-0.9-1.3-2.1c0-0.5,0.1-0.9,0.3-1.3c-0.2-0.1-0.4-0.1-0.6-0.1
				c-1.3,0-2.3,1.7-2.3,3.8s1,3.8,2.3,3.8c1.3,0,2.3-1.7,2.3-3.8c0-0.2,0-0.4,0-0.7C142.5,89.1,142.3,89.2,142,89.2z"/>
			<path class="st20" d="M142.1,89c-1.4-0.1-1.2-2.4-0.8-3.2c0-0.1-0.1-0.1-0.1-0.1c-1.3-0.4-2.3,0.5-2.8,1.6
				c-0.7,1.5-0.6,3.6,0.3,5c0.6,1,1.8,1.4,2.8,0.7c1.4-0.9,1.6-2.8,1.5-4.3c0-0.2-0.4,0-0.5,0C142.3,88.9,142.2,89,142.1,89
				c-0.3,0-0.5,0.4-0.1,0.3c0.4-0.1,0.6-0.2,1-0.5c-0.2,0-0.3,0-0.5,0c0.1,1.2-0.3,4.8-2.3,4.1c-1.5-0.5-1.8-2.9-1.6-4.3
				c0.1-0.7,0.3-1.5,0.7-2.1c0.3-0.3,0.8-0.9,1.2-0.7c0.3,0.2,0.1,0.3,0.1,0.6c0,0.2,0,0.4,0,0.6c0,0.9,0.4,2.1,1.4,2.2
				C142.1,89.4,142.4,89.1,142.1,89z"/>
		</g>
		<g class="st5">
			<ellipse id="XMLID_56_" class="st6" cx="164.6" cy="89.7" rx="3.5" ry="5.9"/>
			<g class="st7">
				<g class="st7">
					<path class="st8" d="M167.5,92.4l0.1-0.2c0,0-0.1,0-0.1-0.1c0-0.2-0.2,0.4-0.4,0.9C167,93.1,167.2,93,167.5,92.4z"/>
					<path class="st9" d="M168.8,89.9c0-0.1,0-0.2,0-0.3l0,0C168.7,89.8,168.7,89.9,168.8,89.9z"/>
					<path class="st8" d="M168.1,90.6c0,0.2,0,0.4-0.1,0.5c0,0.2,0,0.3-0.1,0.5c0.1-0.2,0.1-0.3,0.2-0.4c0.1-0.1,0.2-0.3,0.2-0.5
						c0-0.1,0-0.3,0-0.5c0,0.1,0,0.1,0,0.2c0-0.1,0-0.2,0-0.2c0-0.1,0-0.1,0-0.1s0,0.2-0.1,0.4c0,0.2-0.1,0.4-0.1,0.6
						c0-0.2,0-0.5,0-0.7c0,0.1,0,0.1-0.1,0.2c0,0.1,0,0.2,0,0.3L168.1,90.6z"/>
					<path class="st8" d="M165.8,93.9C165.8,93.9,165.9,93.9,165.8,93.9c0.1-0.1,0.2-0.2,0.2-0.4l-0.1,0.1l-0.1,0.1
						C165.8,93.8,165.8,93.8,165.8,93.9h-0.1c0,0,0,0,0-0.1l0,0l-0.1,0.1h0.1c-0.1,0-0.1,0.1-0.2,0.1l-0.1,0.1
						C165.5,94.1,165.7,94,165.8,93.9z"/>
					<path class="st10" d="M164,94.3c0,0.1,0,0.1-0.1,0.1c0.1,0,0.2,0.1,0.2,0.1c0.1,0,0.2,0.1,0.2,0.1c-0.1,0.1,0.1,0.3,0.5,0.3
						s0.8-0.2,1-0.3s0.5-0.3,0.8-0.6c0.3-0.3,0.5-0.6,0.7-0.8c0-0.1,0-0.1,0.1-0.4c-0.1,0.1-0.2,0.3-0.2,0.5v0.1v-0.1
						c0-0.1,0.1-0.3,0.2-0.4c0,0.1-0.1,0.1-0.1,0.1v-0.1c-0.2,0.2-0.3,0.4-0.5,0.6c-0.2,0.1-0.3,0.2-0.4,0.2l-0.1,0.1
						c-0.4,0.5-0.6,0.5-0.6,0.4c-0.2,0.2-0.5,0.4-0.7,0.4c-0.3,0-0.5-0.1-0.7-0.2h-0.1C164.2,94.4,164.1,94.4,164,94.3
						C164.1,94.4,164.1,94.4,164,94.3z"/>
					<path class="st11" d="M168.2,89.7c0.1,0,0.1-0.2,0.2-0.4c0-0.1,0.1-0.2,0.1-0.3s0-0.3,0.1-0.4c0.1-0.6,0-1.4-0.3-2.2
						s-0.7-1.6-1.3-2.3c-0.3-0.3-0.7-0.7-1.3-0.9c-0.5-0.2-1.1-0.3-1.7-0.2c0.1,0,0.1,0,0.2,0.1c0,0,0,0.1-0.1,0.1
						c-0.1,0-0.2,0.1-0.3,0.2c-0.1,0-0.1,0.1-0.2,0.1s-0.2,0.1-0.3,0.2s-0.2,0.1-0.3,0.2c-0.1,0.1-0.2,0.2-0.3,0.2
						c-0.1,0.1-0.2,0.2-0.3,0.2c-0.1,0.1-0.1,0.1-0.1,0.2c-0.3,0.4-0.4,0.7-0.5,1c-0.1,0.3-0.2,0.6-0.4,1.1c0.1-0.2,0.2-0.2,0.3-0.3
						c0.3-0.5,0.7-1.1,1.2-1.8c0.1-0.1,0.3-0.2,0.3-0.2c0.1,0,0.1,0-0.1,0.2c0.3-0.2,0.6-0.3,0.8-0.5c0.1,0,0.3-0.1,0.4-0.1h0.2h0.1
						h0.1c0.1,0,0.2,0,0.3,0c0.1,0,0.1,0,0.2,0.1c0.1,0,0.1,0,0.1,0.1c0,0,0.1,0,0.1,0.1c0.1,0.1,0.1,0.1,0.1,0.2s-0.2,0.1,0,0.3
						c0,0.1,0.1,0.1,0.2,0.2c0.4,0.2,0.8,0.5,1.1,0.9s0.6,0.8,0.8,1.3c0.1,0.2,0.1,0.6,0.2,0.8c0.1,0.4,0.2,1,0.3,1.4
						C168.1,89.5,168.2,89.7,168.2,89.7z"/>
					<path class="st12" d="M160.3,89.1c0-0.3,0-0.6,0-1c-0.1,0.5-0.2,1-0.3,1.6c0,0.1,0.1,0.3,0.1,0.4
						C160.1,89.7,160.2,89.3,160.3,89.1z"/>
					<path class="st12" d="M164.6,84.4c0.1-0.1,0-0.1-0.1-0.1s-0.1,0-0.2,0h-0.1h-0.1c-0.6,0.2-0.9,0.5-1.3,0.7c0,0-0.2,0.2-0.3,0.3
						c0,0-0.2,0.1-0.1-0.1c-0.1,0.1-0.1,0.2-0.2,0.3l-0.1,0.1v0.1c-0.2,0.3,0.1-0.3-0.1-0.1c-0.3,0.6-0.5,1.2-0.6,1.6
						c-0.1,0.2-0.2,0.3-0.2,0.3c-0.1,0-0.1,0-0.1-0.1s0-0.3,0-0.4c0-0.2,0-0.3,0-0.4c0-0.3,0.3-0.9,0.6-1.4
						c-0.2,0.1-0.6,0.8-0.4,0.4c0.1-0.2,0.2-0.4,0.3-0.6c0-0.1,0.1-0.2,0.1-0.3s0.1-0.2,0.1-0.2c-0.4,0.5-0.7,1.1-0.9,1.7
						c-0.2,0.6-0.3,1.1-0.4,1.4c0,0.1-0.1,0.2-0.1,0.3s-0.1,0.2-0.1,0.3c0,0.4,0,0.7,0,1c-0.1,0.2-0.2,0.6-0.2,1
						c0,0.2,0.1,0.3,0.1,0.4c0.1,0.2,0.1-0.1,0.1-0.4c0-0.1,0-0.2,0-0.3s0-0.2,0-0.3c0-0.2,0-0.3,0.1-0.4c0,0.7,0.1,1.2,0.2,1.3
						c0.1,0.2,0.2,0.1,0.3-0.1c0.1-0.2,0.1-0.3,0.1-0.5c0.1-0.2,0.1-0.4,0.2-0.7c0-0.1,0-0.3,0.1-0.5c0-0.2,0-0.4,0.1-0.6
						c0,0.1,0,0.5,0,0.4c0.2-0.7,0.4-0.9,0.6-1.7c0,0,0.1,0,0,0.2c0-0.2,0.1-0.3,0.1-0.3s0.1-0.1,0.2-0.3c0.1-0.1,0.2-0.1,0.3-0.1
						s0.2-0.1,0.3-0.4c0,0,0-0.1,0.1-0.1c0,0,0-0.1,0.1-0.1l0.1-0.1c0.2-0.3,0.5-0.7,0.9-0.8c0.3-0.1,0.6-0.1,0.9-0.1h-0.1
						C164.8,84.4,164.8,84.4,164.6,84.4C164.7,84.4,164.7,84.4,164.6,84.4z"/>
					<path class="st13" d="M165.4,84.5c-0.2-0.2,0-0.2,0-0.3c0,0,0-0.1-0.1-0.2c0,0-0.1,0-0.1-0.1c0,0-0.1,0-0.1-0.1
						c-0.1,0-0.1,0-0.2-0.1c-0.1,0-0.2,0-0.3,0h-0.1h-0.1h-0.2c-0.1,0-0.3,0.1-0.4,0.1c-0.3,0.1-0.5,0.2-0.8,0.5
						c0.2-0.2,0.2-0.2,0.1-0.2s-0.3,0.1-0.3,0.2c-0.6,0.7-0.9,1.3-1.2,1.8c-0.1,0.2-0.2,0.2-0.3,0.3c0.1-0.5,0.3-0.8,0.4-1.1
						c0.1-0.3,0.2-0.6,0.5-1c0,0,0.1-0.1,0.1-0.2c0.1-0.1,0.2-0.2,0.3-0.2c0.1-0.1,0.2-0.2,0.3-0.2c0.1-0.1,0.2-0.1,0.3-0.2
						c0.1-0.1,0.2-0.1,0.3-0.2c0.1,0,0.1-0.1,0.2-0.1c0.1-0.1,0.2-0.1,0.3-0.2c0.1,0,0.1-0.1,0.1-0.1s-0.1-0.1-0.2-0.1
						c-0.2,0-0.4,0.1-0.6,0.2c-0.1,0-0.2,0.1-0.3,0.1l-0.3,0.2c-0.2,0.1-0.3,0.2-0.5,0.4c-0.1,0.1-0.3,0.3-0.4,0.4
						c0,0.1-0.1,0.1-0.1,0.2c0,0.1-0.1,0.2-0.1,0.2c0,0.1-0.1,0.2-0.1,0.3c-0.1,0.2-0.2,0.4-0.3,0.6c-0.1,0.4,0.3-0.3,0.4-0.4
						c-0.2,0.6-0.6,1.3-0.6,1.6c0,0.1,0,0.3,0,0.4c0,0.2,0,0.3,0,0.4c0,0.1,0.1,0.2,0.1,0.1c0.1,0,0.1-0.2,0.2-0.3
						c0.2-0.4,0.4-0.9,0.6-1.6c0.2-0.2-0.1,0.4,0.1,0.1v-0.1l0.1-0.1c0.1-0.1,0.1-0.2,0.2-0.3c-0.1,0.2,0.1,0,0.1,0.1
						c0.1-0.1,0.3-0.3,0.3-0.3c0.4-0.2,0.7-0.5,1.3-0.7h0.1h0.1c0.1,0,0.1,0,0.2,0c0.1,0,0.2,0.1,0.1,0.1c0,0,0,0,0.1,0h0.1h0.1
						C165,84.4,165.3,84.5,165.4,84.5C165.5,84.6,165.5,84.6,165.4,84.5z"/>
					<path class="st14" d="M162.9,85.7c-0.2,0.2-0.2,0.3-0.3,0.4c-0.1,0-0.2,0-0.3,0.1c-0.1,0.2-0.1,0.2-0.2,0.3
						c0,0-0.1,0.1-0.1,0.3c0.1-0.2,0-0.2,0-0.2c-0.3,0.8-0.4,1.1-0.6,1.7c0,0.1,0-0.3,0-0.4c0,0.2,0,0.4-0.1,0.6
						c0,0.2,0,0.4-0.1,0.5c-0.1,0.3-0.1,0.5-0.2,0.7c0,0.2-0.1,0.4-0.1,0.5c-0.1,0.2-0.2,0.3-0.3,0.1c-0.1-0.2-0.2-0.6-0.2-1.3
						c0,0.1-0.1,0.2-0.1,0.4c0,0.1,0,0.2,0,0.3s0,0.2,0,0.3c0,0.3,0,0.6-0.1,0.4c0-0.1-0.1-0.2-0.1-0.4c0,0.5,0.1,1.1,0.2,1.6
						c0.1,0.6,0.3,1.1,0.5,1.7c0.1,0,0.1,0,0-0.2c0-0.2-0.1-0.3-0.1-0.4s0-0.2,0-0.3s0-0.2,0.1-0.3c0.1-0.1,0.2-0.2,0.2-0.7
						c0-0.1,0-0.3,0-0.4c0-0.2,0-0.3,0-0.4c0.1-0.4,0.3,0,0.4-0.4v-0.7c0.1-0.2,0.2-0.1,0.3-0.6c0-0.2,0.1-0.3,0.1-0.4
						s0.1-0.3,0.1-0.4c0.1-0.2,0.2-0.4,0.2-0.5c0.1-0.1,0.2-0.3,0.2-0.4l0.1-0.2l0.1-0.2c0.1-0.6,0.3-1.1,0.6-1.6l-0.1,0.1
						C163,85.6,163,85.6,162.9,85.7C163,85.7,163,85.7,162.9,85.7z"/>
					<path class="st15" d="M168.2,94.9c0-0.1,0.1-0.2,0.1-0.2c0-0.1,0.1-0.2,0.1-0.2c0.1-0.2,0.2-0.3,0.2-0.5
						c-0.4,0.7-0.8,1.1-1.1,1.4c-0.2,0.1-0.4,0.3-0.5,0.3c-0.2,0.1-0.3,0.1-0.5,0.2c0,0-0.2,0.1-0.5,0.2c-0.1,0.1-0.3,0.1-0.4,0.2
						c-0.2,0.1-0.4,0.1-0.5,0.1c-0.2,0-0.4,0-0.6,0s-0.4,0-0.5-0.1c-0.1,0-0.3-0.1-0.4-0.1c-0.1,0-0.2-0.1-0.2-0.1h0.1
						c0.1,0,0.2,0,0.3,0c0.2,0,0.5,0.1,0.8,0c-0.1,0-0.3,0-0.4-0.1c-0.1,0-0.2-0.1-0.3-0.1s-0.2-0.1-0.3-0.1
						c-0.1-0.1-0.1-0.1-0.2-0.1c-0.1-0.1-0.2-0.2-0.3-0.3l-0.1-0.1l-0.1-0.1c-0.1-0.1-0.1-0.2-0.2-0.3c0-0.1-0.1-0.2-0.1-0.3
						c-0.1-0.1-0.1-0.2-0.1-0.3c-0.1-0.1-0.1-0.3-0.2-0.4c-0.3-0.6-0.3-1.2-0.3-1.6c0-0.2,0-0.4,0.1-0.6c0.1-0.1,0.1-0.2,0.2-0.3
						c0.1-0.1,0.1-0.8,0.1-1.5c-0.1-0.2-0.1-0.5-0.1-0.8c0,0.2-0.1,0.3-0.1,0.5c0,0.1-0.1,0.2-0.1,0.3c-0.2,0.1-0.3,0.3-0.4,0.6
						c-0.1,0.3-0.1,0.8,0,1.5c0.1,0.5-0.3,0.2-0.3,0.5c0,0.1,0,0.3,0,0.4c0,0.1,0,0.2,0,0.3c0,0.2,0.1,0.4,0.1,0.6
						c0,0.2,0.1,0.4,0.1,0.6c0.1,0.2,0.1,0.4,0.2,0.6c0,0.1,0.1,0.2,0.2,0.4c0.1,0.2,0.2,0.3,0.4,0.5c0.4,0.2,0.8,0.5,1.2,0.6
						c0.2,0.1,0.5,0.1,0.7,0.1c0.1,0,0.2,0,0.4,0c0.1,0,0.2,0,0.4,0s0.3-0.1,0.5-0.1c0.1-0.1,0.3-0.1,0.4-0.2
						c0.2-0.1,0.4-0.2,0.5-0.3c0.1-0.1,0.2-0.1,0.3-0.2c0.1-0.1,0.2-0.1,0.3-0.1c0.1-0.1,0.3-0.1,0.4-0.3c0.1-0.1,0.2-0.1,0.2-0.2
						s0.1-0.1,0.1-0.2C168.1,95,168.1,95,168.2,94.9z"/>
					<path class="st16" d="M161.7,89.1c0,0.5-0.2,0.4-0.3,0.6c-0.1,0.1,0,0.7,0,0.7c-0.1,0.4-0.3,0-0.4,0.4c0,0,0,0.2,0,0.4
						c0,0.2,0,0.3,0,0.4c0,0.5-0.1,0.6-0.2,0.7c0,0.1-0.1,0.1-0.1,0.3c0,0.1,0,0.1,0,0.3c0,0.1,0,0.2,0.1,0.4c0,0.2,0,0.2,0,0.2l0,0
						c-0.2-0.1,0.1,0.5,0.2,0.7c0.1,0.2,0.2,0.4,0.3,0.5c0.1,0.1,0.2,0.3,0.3,0.4c0.1,0.1,0.2,0.2,0.3,0.4c0.1,0.1,0.2,0.3,0.4,0.4
						c0.1,0.1,0.2,0.2,0.4,0.3c-0.2-0.2-0.3-0.4-0.4-0.5c-0.1-0.2-0.2-0.3-0.2-0.4c-0.1-0.2-0.2-0.4-0.2-0.6s-0.1-0.4-0.1-0.6
						s-0.1-0.4-0.1-0.6c0-0.1,0-0.2,0-0.3s0-0.3,0-0.4c0-0.3,0.3,0,0.3-0.5c-0.1-0.7-0.1-1.2,0-1.5c0.1-0.3,0.2-0.5,0.4-0.6
						c0,0,0.1-0.1,0.1-0.3c0-0.1,0.1-0.3,0.1-0.5c0-0.2,0-0.4,0-0.6c0-0.1,0-0.2,0.1-0.3c0-0.1,0-0.1,0-0.1l0,0c0-0.2,0-0.4,0.1-0.5
						c0-0.2,0-0.3,0.1-0.5l-0.1,0.2l-0.1,0.2c-0.1,0.1-0.2,0.2-0.2,0.4c-0.1,0.1-0.2,0.3-0.2,0.5c0,0.1-0.1,0.2-0.1,0.4
						C161.7,88.8,161.7,88.9,161.7,89.1z"/>
					<path class="st17" d="M169.1,92.9c0-0.2,0.1-0.4,0.1-0.6c0.1-0.5,0.1-0.4,0.2-0.7l0,0l0,0c0-0.1,0-0.1,0-0.2
						c-0.1,0.2-0.2,0.4-0.3,0.3c-0.1,0.3-0.2,0.6-0.2,0.7c-0.1,0.1-0.1,0.2-0.2,0.2l-0.2,0.2c-0.1,0.2-0.3,0.3-0.4,0.5
						c-0.1,0.1-0.2,0.2-0.3,0.3c-0.1,0.1-0.2,0.2-0.3,0.4c-0.1,0.1-0.2,0.3-0.4,0.5c-0.2,0.2-0.3,0.3-0.6,0.5
						c-0.4,0.3-0.4,0.2-0.5,0.1c0,0-0.1-0.1-0.2-0.1c-0.1,0-0.1,0-0.2,0c-0.1,0-0.2,0-0.3,0.1c-0.2,0-0.4,0.1-0.7,0.1
						c-0.2,0-0.4-0.1-0.5-0.2c0-0.1,0.1-0.1,0.1-0.2v-0.1c0,0-0.1-0.1-0.2-0.1c-0.3-0.2-0.6-0.4-0.8-0.7c0-0.1-0.1-0.1-0.1-0.2
						s-0.1-0.1-0.1-0.2c0-0.1-0.1-0.1-0.1-0.2v-0.1v-0.1c-0.1-0.3-0.1-0.5-0.1-0.7c0-0.2,0.1-0.3,0.1-0.4c-0.2-0.6-0.4-1.4-0.6-2.2
						c-0.1,0.6,0,1.4-0.1,1.5c-0.1,0-0.1,0.1-0.2,0.3c0,0.3,0,0.4,0,0.7c0,0.4,0.1,1,0.3,1.6c0.1,0.1,0.1,0.3,0.2,0.4
						s0.1,0.2,0.1,0.3s0.1,0.2,0.1,0.3s0.1,0.2,0.2,0.3l0.1,0.1l0.1,0.1c0.1,0.1,0.2,0.2,0.3,0.3c0.1,0,0.1,0.1,0.2,0.1
						c0.1,0.1,0.2,0.1,0.3,0.1s0.2,0.1,0.3,0.1c0.1,0,0.3,0.1,0.4,0.1c-0.3,0-0.6,0-0.8,0c-0.1,0-0.2,0-0.3,0c-0.1,0-0.1,0-0.1,0
						s0.1,0.1,0.2,0.1c0.1,0,0.2,0.1,0.4,0.1c0.1,0,0.3,0.1,0.5,0.1s0.4,0,0.6,0c0.2,0,0.4-0.1,0.5-0.1c0.2-0.1,0.3-0.1,0.4-0.2
						c0.2-0.1,0.4-0.2,0.5-0.2s0.3-0.1,0.5-0.2s0.3-0.2,0.5-0.3c0.4-0.3,0.8-0.7,1.1-1.4c0.1-0.2,0.2-0.3,0.2-0.5
						C168.9,93.3,169,93.1,169.1,92.9z"/>
					<path class="st18" d="M164.1,94.8c0.1,0.1,0.2,0.1,0.2,0.1V95c0,0.1-0.2,0.1-0.1,0.2c0,0.1,0.2,0.1,0.5,0.2
						c0.2,0,0.5,0,0.7-0.1c0.1,0,0.2-0.1,0.3-0.1c0.1,0,0.1,0,0.2,0c0.1,0,0.1,0,0.2,0.1c0.1,0.1,0.1,0.2,0.5-0.1
						c0.2-0.2,0.4-0.3,0.6-0.5c0.2-0.2,0.3-0.3,0.4-0.5c0.1-0.1,0.2-0.3,0.3-0.4c0.1-0.1,0.2-0.2,0.3-0.3c0.1-0.2,0.3-0.3,0.4-0.5
						l0.2-0.2c0.1-0.1,0.1-0.2,0.2-0.2c0.1-0.1,0.2-0.4,0.2-0.7l-0.1-0.1c0,0-0.1,0.1-0.2,0.4c-0.1,0.2-0.2,0.5-0.3,0.7
						c-0.1,0.1-0.1,0-0.1-0.2c0-0.2,0-0.4,0-0.7c0-0.1,0-0.2,0-0.2l0,0c0-0.1,0-0.1,0-0.2c-0.1,0.2-0.1,0.3-0.2,0.4
						c0,0.1,0,0.1-0.1,0.2v-0.1c-0.1,0.2-0.2,0.3-0.3,0.4s-0.2,0.2-0.3,0.3c0,0.1,0,0.1-0.1,0.2c0-0.1,0-0.1,0.1-0.2
						c-0.1,0.1-0.2,0.3-0.3,0.4c-0.1,0.2-0.2,0.3-0.3,0.5c-0.1,0.1-0.2,0.3-0.4,0.4c-0.1,0.1-0.1,0.1-0.2,0.1
						c-0.1,0-0.1,0.1-0.2,0.1c-0.2,0.1-0.6,0.3-1,0.4h-0.1H165c-0.1,0-0.1,0-0.2,0c-0.1,0-0.1-0.1-0.1-0.2c-0.1,0-0.2,0-0.2,0h-0.1
						h-0.1l0.1-0.1c-0.1,0-0.1-0.1-0.2-0.1c0-0.1-0.1-0.1-0.1-0.1h0.1c0,0,0.1,0,0.1,0.1l0,0l0,0c-0.1,0-0.1-0.1-0.2-0.1
						c-0.1,0-0.2,0-0.3,0h0.1c0,0,0,0,0.1,0h0.1h0.1c-0.1-0.1-0.2-0.2-0.3-0.4c0,0-0.1,0-0.1-0.1c0,0,0.1,0,0.1,0.1v-0.1
						c0,0,0,0-0.1,0c0,0,0,0-0.1-0.1c0,0-0.1-0.1-0.2-0.1c-0.1-0.1-0.2-0.2-0.3-0.4c0-0.1,0-0.1,0-0.2s0-0.1,0-0.2
						c0-0.1-0.1-0.3-0.1-0.5c-0.1,0.1-0.1,0.2-0.1,0.4c0,0.2,0,0.4,0.1,0.7v0.1v0.1c0,0.1,0.1,0.1,0.1,0.2s0.1,0.1,0.1,0.2
						c0,0.1,0.1,0.2,0.1,0.2C163.5,94.4,163.7,94.7,164.1,94.8z"/>
				</g>
			</g>
		</g>
		<g>
			<path id="XMLID_55_" class="st19" d="M166,89.4c-0.7,0-1.3-0.9-1.3-2.1c0-0.5,0.1-0.9,0.3-1.3c-0.2-0.1-0.4-0.1-0.6-0.1
				c-1.3,0-2.3,1.7-2.3,3.8s1,3.8,2.3,3.8c1.3,0,2.3-1.7,2.3-3.8c0-0.2,0-0.4,0-0.7C166.5,89.2,166.2,89.4,166,89.4z"/>
			<path class="st20" d="M166.1,89.2c-1.3-0.1-1.2-2.3-0.8-3.1c0-0.1,0-0.2-0.1-0.2c-3.5-1.1-3.8,4.8-2.5,6.7c0.6,1,1.8,1.4,2.8,0.7
				c1.4-0.9,1.6-2.9,1.5-4.3c0-0.2-0.3-0.1-0.4-0.1c-0.2,0.1-0.4,0.2-0.6,0.3c-0.4,0-0.3,0.4,0,0.4c0.4-0.1,0.6-0.2,0.8-0.4
				c-0.1,0-0.3,0-0.4-0.1c0.1,1.2-0.1,2.6-0.8,3.5c-0.9,1-2,0.5-2.6-0.5s-0.7-2.2-0.5-3.3s0.9-3,2.4-2.6c0-0.1-0.1-0.1-0.1-0.2
				c-0.5,1.1-0.5,3.4,1.1,3.6C166.2,89.6,166.4,89.2,166.1,89.2z"/>
		</g>
		<g>
			<polygon id="XMLID_54_" class="st1" points="158.4,101.1 152.6,108.7 146.9,101.1 152.6,95.4 			"/>
			<path class="st2" d="M158.2,101.1c-1.9,2.5-3.8,5.1-5.8,7.6c0.2,0,0.3,0,0.5,0c-1.5-2-3.1-4-4.6-6.1c-0.3-0.4-0.6-0.9-1-1.3
				c-0.1-0.1-0.1-0.2-0.2-0.2c0.1,0.2-0.1,0.2,0.1,0c0.4-0.3,0.8-0.8,1.1-1.1c0.6-0.6,1.2-1.2,1.8-1.8c0.9-0.9,1.8-1.8,2.7-2.7
				c-0.2,0-0.3,0-0.5,0c1.9,1.9,3.8,3.8,5.8,5.8c0.2,0.2,0.6-0.1,0.5-0.2c-1.9-1.9-3.8-3.8-5.8-5.8c-0.1-0.1-0.3-0.1-0.5,0
				c-1.9,1.9-3.8,3.8-5.8,5.8c0,0-0.1,0.1,0,0.2c1.9,2.5,3.8,5.1,5.8,7.6c0.1,0.1,0.4,0.1,0.5,0c1.9-2.5,3.8-5.1,5.8-7.6
				C158.8,100.9,158.3,100.9,158.2,101.1z"/>
		</g>
		<polygon id="XMLID_53_" class="st21" points="158.1,101.2 152.7,108.3 152.6,95.7 		"/>
		<path id="XMLID_52_" class="st22" d="M143.6,69.2c-1.5-0.7-1.9,0-0.5,0.6c1.4,0.9,4,2.8,6.1,6.1c1.8,2.9,3.1,6.6,3.4,7.7
			c-0.2-1.7-0.7-5-2.8-8.4C147.6,72,145,70.1,143.6,69.2z"/>
		<path id="XMLID_51_" class="st22" d="M162.1,68.4c1.5-0.7,1.9,0,0.5,0.6c-1.4,0.9-4,2.8-6.1,6.1c-1.8,2.9-3.1,6.6-3.4,7.7
			c0.2-1.7,0.7-5,2.8-8.4C158,71.2,160.6,69.3,162.1,68.4z"/>
		<path class="st2" d="M146.1,111.3c1.3,0.6,2.8,0.6,4.2,0c0.1-0.1-0.3-0.8-0.6-0.7c-1.3,0.6-2.7,0.6-4,0
			C145.5,110.5,145.9,111.2,146.1,111.3L146.1,111.3z"/>
		<path class="st2" d="M154.5,111.3c1.3,0.6,2.8,0.7,4.2,0c0.1-0.1-0.4-0.8-0.6-0.7c-1.3,0.6-2.7,0.6-4,0
			C153.9,110.5,154.3,111.2,154.5,111.3L154.5,111.3z"/>
		<path class="st2" d="M150.5,114.8c1.3,0.7,2.9,0.7,4.2,0c0.1-0.1-0.4-0.8-0.6-0.7c-1.3,0.7-2.7,0.7-4,0
			C150,114.1,150.4,114.7,150.5,114.8L150.5,114.8z"/>
		<path class="st2" d="M144.6,118.1c1.3,0.6,2.8,0.6,4.2,0c0.1,0-0.3-0.8-0.6-0.7c-1.3,0.5-2.7,0.5-4,0
			C144,117.3,144.4,118,144.6,118.1L144.6,118.1z"/>
		<path class="st2" d="M155.9,117.9c1.3,0.6,2.8,0.6,4.2,0c0.1-0.1-0.3-0.8-0.6-0.7c-1.3,0.6-2.7,0.6-4,0
			C155.3,117.2,155.7,117.9,155.9,117.9L155.9,117.9z"/>
	</g>
</g>
<g>
	<g>
		<path id="XMLID_48_" class="st4" d="M211.1,105.7c0-11.2,7-15.6,12.7-15.6c4.1,0,6.5,1.5,8.5,3.8v-8.4h-3.8v-4.8h10.7
			c1,0,1.4,0.7,1.4,1.9v31.3c0,0.6,0.7,1.5,1.4,1.5h2v4.7h-10c-0.8,0-1.4-1.2-1.5-3.3c-1.9,2.2-4.9,3.8-9,3.8
			C217.5,120.6,211.1,117.1,211.1,105.7z M232.3,113.3V97c-1.5-0.7-3.5-1.3-5.5-1.3c-3.9,0-7.4,2.3-7.4,9.8c0,8.1,3.3,10.1,6.7,10.1
			C228.8,115.6,230.7,114.7,232.3,113.3z"/>
		<path id="XMLID_45_" class="st4" d="M245.1,111.6c0-6.2,4.8-9,11.7-9c2.5,0,4.2,0.2,6,0.7v-3.1c0-3-1.6-4.4-5.1-4.4
			c-3.6,0-5.4,1.4-6.8,2.6h-3.8v-6c2.8-1.2,6.5-2.3,12.2-2.3c7.7,0,11.7,2.5,11.7,9.2V114c0,0.7,0.7,1.4,1.4,1.4h1.6v3.9
			c-1.1,0.7-2.8,1.1-5,1.1c-3.4,0-5.2-1.4-5.9-3.7c-2.2,2.7-5,3.7-8.6,3.7C249.1,120.5,245.1,117.5,245.1,111.6z M262.8,113.6v-6.3
			c-1.3-0.2-2.8-0.3-4.3-0.3c-3.3,0-5.4,1.4-5.4,4.3c0,2.9,1.7,4.4,4.5,4.4C259.7,115.6,261.4,114.9,262.8,113.6z"/>
		<path id="XMLID_43_" class="st4" d="M272.4,90.6h3.5v-7.9h8.2v7.9h6v5h-6v16.2c0,3.2,1.1,3.7,4.2,3.7h2v4.4
			c-1.2,0.4-3,0.7-5.3,0.7c-5.7,0-9.1-1.8-9.1-7.9V95.5h-3.5L272.4,90.6L272.4,90.6z"/>
		<path id="XMLID_40_" class="st4" d="M291.5,111.6c0-6.2,4.8-9,11.7-9c2.5,0,4.2,0.2,6,0.7v-3.1c0-3-1.6-4.4-5.1-4.4
			c-3.6,0-5.4,1.4-6.8,2.6h-3.8v-6c2.8-1.2,6.5-2.3,12.2-2.3c7.7,0,11.7,2.5,11.7,9.2V114c0,0.7,0.7,1.4,1.4,1.4h1.6v3.9
			c-1.1,0.7-2.8,1.1-5,1.1c-3.4,0-5.2-1.4-5.9-3.7c-2.2,2.7-5,3.7-8.6,3.7C295.5,120.5,291.5,117.5,291.5,111.6z M309.2,113.6v-6.3
			c-1.3-0.2-2.8-0.3-4.3-0.3c-3.3,0-5.4,1.4-5.4,4.3c0,2.9,1.7,4.4,4.5,4.4C306.1,115.6,307.8,114.9,309.2,113.6z"/>
		<path id="XMLID_38_" class="st4" d="M323.6,116c0-2.5,2-4.6,4.6-4.6c2.5,0,4.6,2,4.6,4.6c0,2.5-2.1,4.5-4.6,4.5
			S323.6,118.5,323.6,116z"/>
	</g>
	<g>
		<path id="XMLID_36_" class="st4" d="M351.9,100.9l-5.9,19.2h-7L332.3,97c-0.3-0.9-1-1.6-1.8-1.6h-1.1v-5h13.1v5H340l3.9,14.8h0.1
			l5.7-19.7h6.3l5.7,19.7h0.1l3-11c0.7-2.6,0.5-3.7-1.9-3.7h-0.8v-5h12.3v5h-1c-0.9,0-1.8,0.5-2.1,1.7l-6.7,22.9h-7l-5.6-19.2H351.9
			z"/>
		<path id="XMLID_33_" class="st4" d="M373.8,105.5c0-9.5,6.9-15.4,15.6-15.4c8.6,0,15.6,5.9,15.6,15.4s-6.9,15.1-15.6,15.1
			C380.7,120.6,373.8,115,373.8,105.5z M396.5,105.6c0-6.7-3.1-10-7.2-10s-7.2,3.3-7.2,10c0,6.7,3.1,9.8,7.2,9.8
			S396.5,112.2,396.5,105.6z"/>
		<path id="XMLID_6_" class="st4" d="M405,115.5h2c0.7,0,1.4-0.8,1.4-1.4v-17c0-0.6-0.7-1.5-1.4-1.5h-2.2v-5h10.1
			c1,0,1.6,0.8,1.7,4.3c2-2.4,4.3-4.6,8.2-4.6c0.6,0,1.2,0.1,1.8,0.3v6.1h-1.4c-4.3,0-6.9,0.9-8.5,1.8v17h4.1v4.7H405V115.5z"/>
		<path id="XMLID_4_" class="st4" d="M427.1,115.5h2.2c0.7,0,1.4-0.8,1.4-1.4v-27c0-0.6-0.7-1.5-1.4-1.5H427v-4.8h10.6
			c1,0,1.4,0.7,1.4,1.9v31.5c0,0.7,0.8,1.4,1.4,1.4h2.3v4.7h-15.6L427.1,115.5L427.1,115.5z"/>
		<path id="XMLID_1_" class="st4" d="M443.2,105.7c0-11.2,7-15.6,12.7-15.6c4.1,0,6.5,1.5,8.5,3.8v-8.4h-3.8v-4.8h10.7
			c1,0,1.4,0.7,1.4,1.9v31.3c0,0.6,0.7,1.5,1.4,1.5h2v4.7h-10c-0.8,0-1.4-1.2-1.5-3.3c-1.9,2.2-4.9,3.8-9,3.8
			C449.6,120.6,443.2,117.1,443.2,105.7z M464.4,113.3V97c-1.5-0.7-3.5-1.3-5.5-1.3c-3.9,0-7.4,2.3-7.4,9.8c0,8.1,3.3,10.1,6.7,10.1
			C460.8,115.6,462.8,114.7,464.4,113.3z"/>
	</g>
</g>
<g>
	<path class="st23" d="M487,98.2l3-24.9h2.3c0.4,0,0.8,0.1,1.1,0.3c0.3,0.2,0.4,0.5,0.4,0.9c0,0.1,0,0.2,0,0.4c0,0.2,0,0.5,0,0.9
		s0,1-0.1,1.7c0.9-1.4,1.9-2.4,3.1-3.2c1.1-0.8,2.3-1.2,3.6-1.2c0.8,0,1.5,0.1,2.1,0.4c0.6,0.3,1.2,0.7,1.6,1.3s0.8,1.3,1,2.2
		s0.4,1.9,0.4,3.1c0,1.1-0.1,2.1-0.3,3.1s-0.5,2-0.9,2.9c-0.4,0.9-0.9,1.8-1.4,2.5c-0.6,0.8-1.2,1.4-1.9,2c-0.7,0.6-1.4,1-2.2,1.3
		c-0.8,0.3-1.6,0.5-2.4,0.5s-1.6-0.1-2.3-0.4s-1.3-0.7-1.8-1.2l-0.9,7.5L487,98.2L487,98.2z M498.6,76.7c-0.5,0-1,0.2-1.5,0.5
		c-0.5,0.3-1,0.8-1.5,1.4s-0.9,1.3-1.3,2.1s-0.8,1.7-1,2.6l-0.5,4.5c0.4,0.4,0.9,0.7,1.4,0.9c0.5,0.2,1.1,0.3,1.6,0.3
		c0.8,0,1.5-0.2,2.2-0.7s1.2-1.1,1.7-2c0.5-0.8,0.8-1.7,1.1-2.7c0.3-1,0.4-2,0.4-3c0-1.3-0.2-2.3-0.6-2.9
		C500,77,499.4,76.7,498.6,76.7z"/>
	<path class="st23" d="M507.1,92.1l2.3-18.7h2.3c0.4,0,0.8,0.1,1.1,0.3s0.4,0.5,0.4,0.9c0,0.1,0,0.2,0,0.4c0,0.2,0,0.5,0,1
		c0,0.4,0,1.1-0.1,1.9c0.8-1.5,1.6-2.6,2.5-3.4c0.9-0.8,1.9-1.2,2.8-1.2c0.5,0,1,0.1,1.5,0.3l-0.8,4.3c-0.6-0.3-1.2-0.4-1.7-0.4
		c-1.1,0-2,0.5-2.8,1.6c-0.8,1-1.5,2.7-2,4.9l-1,8.2L507.1,92.1L507.1,92.1z"/>
	<path class="st23" d="M535.4,77.8c0,0.8-0.2,1.6-0.5,2.3c-0.3,0.7-0.9,1.3-1.8,1.9c-0.9,0.5-2,1-3.5,1.4c-1.5,0.4-3.4,0.7-5.6,0.9
		v0.2c0,2.9,1.2,4.4,3.7,4.4c0.5,0,1-0.1,1.4-0.2c0.4-0.1,0.8-0.2,1.1-0.4c0.3-0.2,0.6-0.3,0.8-0.5c0.2-0.2,0.5-0.3,0.7-0.5
		c0.2-0.2,0.4-0.3,0.6-0.4c0.2-0.1,0.4-0.2,0.7-0.2c0.1,0,0.3,0,0.4,0.1s0.3,0.2,0.4,0.3l1.1,1.4c-0.6,0.6-1.3,1.2-1.9,1.7
		c-0.6,0.5-1.3,0.9-1.9,1.2c-0.6,0.3-1.3,0.5-2,0.7c-0.7,0.1-1.5,0.2-2.4,0.2c-1.1,0-2.1-0.2-3-0.6c-0.9-0.4-1.6-0.9-2.3-1.6
		c-0.6-0.7-1.1-1.5-1.5-2.4c-0.3-1-0.5-2-0.5-3.2c0-1,0.1-2,0.3-2.9c0.2-0.9,0.5-1.8,0.9-2.7s0.9-1.6,1.5-2.4c0.6-0.7,1.2-1.3,2-1.9
		c0.7-0.5,1.5-0.9,2.4-1.2c0.9-0.3,1.8-0.4,2.8-0.4s1.8,0.1,2.6,0.4c0.7,0.3,1.3,0.6,1.8,1.1c0.5,0.4,0.9,0.9,1.1,1.5
		C535.3,76.7,535.4,77.2,535.4,77.8z M529.3,76.3c-0.6,0-1.2,0.1-1.7,0.4c-0.5,0.2-1,0.6-1.4,1c-0.4,0.4-0.8,1-1.1,1.6
		c-0.3,0.6-0.6,1.3-0.7,2.1c1.5-0.2,2.7-0.4,3.6-0.7c0.9-0.2,1.6-0.5,2.1-0.8c0.5-0.3,0.8-0.6,1-0.9c0.2-0.3,0.2-0.7,0.2-1.1
		c0-0.2,0-0.4-0.1-0.6c-0.1-0.2-0.2-0.4-0.4-0.5c-0.2-0.2-0.4-0.3-0.6-0.4C530,76.3,529.7,76.3,529.3,76.3z"/>
	<path class="st23" d="M537.2,73.4h3.7c0.3,0,0.6,0.1,0.8,0.2c0.2,0.2,0.3,0.4,0.4,0.6l2,10c0.1,0.6,0.2,1.2,0.3,1.8
		c0,0.6,0.1,1.2,0.1,1.8c0.2-0.6,0.4-1.2,0.6-1.7c0.2-0.6,0.4-1.2,0.7-1.8l4.5-10c0.1-0.2,0.3-0.4,0.5-0.6c0.2-0.2,0.5-0.2,0.7-0.2
		h3.6l-9.2,18.7h-3.8L537.2,73.4z"/>
	<path class="st23" d="M562.1,73.4l-2.2,18.7h-4.5l2.2-18.7H562.1z M563.3,68c0,0.4-0.1,0.8-0.2,1.1c-0.2,0.3-0.4,0.6-0.6,0.9
		c-0.2,0.3-0.6,0.5-0.9,0.6s-0.7,0.2-1.1,0.2c-0.4,0-0.7-0.1-1-0.2c-0.3-0.2-0.6-0.4-0.9-0.6c-0.3-0.2-0.5-0.6-0.6-0.9
		c-0.2-0.3-0.2-0.7-0.2-1.1s0.1-0.8,0.2-1.1c0.2-0.4,0.4-0.7,0.6-0.9c0.3-0.3,0.5-0.5,0.9-0.6c0.3-0.2,0.7-0.2,1-0.2
		c0.4,0,0.7,0.1,1.1,0.2c0.3,0.2,0.6,0.4,0.9,0.6c0.3,0.3,0.5,0.6,0.6,0.9C563.2,67.2,563.3,67.6,563.3,68z"/>
	<path class="st23" d="M580.2,77.8c0,0.8-0.2,1.6-0.5,2.3s-0.9,1.3-1.8,1.9c-0.9,0.5-2,1-3.5,1.4c-1.5,0.4-3.4,0.7-5.6,0.9v0.2
		c0,2.9,1.2,4.4,3.7,4.4c0.5,0,1-0.1,1.4-0.2s0.8-0.2,1.1-0.4c0.3-0.2,0.6-0.3,0.8-0.5c0.2-0.2,0.5-0.3,0.7-0.5
		c0.2-0.2,0.4-0.3,0.6-0.4s0.4-0.2,0.7-0.2c0.1,0,0.3,0,0.4,0.1c0.1,0.1,0.3,0.2,0.4,0.3l1.1,1.4c-0.6,0.6-1.3,1.2-1.9,1.7
		s-1.3,0.9-1.9,1.2c-0.6,0.3-1.3,0.5-2,0.7c-0.7,0.1-1.5,0.2-2.4,0.2c-1.1,0-2.1-0.2-3-0.6s-1.6-0.9-2.3-1.6
		c-0.6-0.7-1.1-1.5-1.5-2.4c-0.3-1-0.5-2-0.5-3.2c0-1,0.1-2,0.3-2.9s0.5-1.8,0.9-2.7c0.4-0.9,0.9-1.6,1.5-2.4c0.6-0.7,1.2-1.3,2-1.9
		c0.7-0.5,1.5-0.9,2.4-1.2c0.9-0.3,1.8-0.4,2.8-0.4s1.8,0.1,2.6,0.4c0.7,0.3,1.3,0.6,1.8,1.1c0.5,0.4,0.9,0.9,1.1,1.5
		C580.1,76.7,580.2,77.2,580.2,77.8z M574.1,76.3c-0.6,0-1.2,0.1-1.7,0.4c-0.5,0.2-1,0.6-1.4,1s-0.8,1-1.1,1.6
		c-0.3,0.6-0.6,1.3-0.7,2.1c1.5-0.2,2.7-0.4,3.6-0.7c0.9-0.2,1.6-0.5,2.1-0.8c0.5-0.3,0.8-0.6,1-0.9c0.2-0.3,0.2-0.7,0.2-1.1
		c0-0.2,0-0.4-0.1-0.6c-0.1-0.2-0.2-0.4-0.4-0.5c-0.2-0.2-0.4-0.3-0.6-0.4C574.8,76.3,574.5,76.3,574.1,76.3z"/>
	<path class="st23" d="M582.2,73.4h3.4c0.3,0,0.6,0.1,0.8,0.2c0.2,0.2,0.3,0.4,0.3,0.6l1.1,10c0.1,0.5,0.1,1.1,0.1,1.6s0,1,0,1.5
		c0.2-0.5,0.4-1,0.6-1.5s0.4-1,0.6-1.6l4.1-10c0.1-0.2,0.3-0.4,0.5-0.6c0.2-0.2,0.5-0.2,0.7-0.2h1.9c0.3,0,0.6,0.1,0.7,0.2
		c0.1,0.1,0.3,0.4,0.3,0.6l1.6,10c0.1,0.5,0.2,1.1,0.2,1.6c0.1,0.5,0.1,1,0.2,1.5c0.1-0.5,0.3-1,0.4-1.5c0.2-0.5,0.3-1,0.5-1.6
		l3.6-10c0.1-0.2,0.2-0.4,0.5-0.6c0.2-0.2,0.5-0.2,0.7-0.2h3.3l-7.7,18.7h-3.5c-0.4,0-0.6-0.3-0.7-0.8l-1.8-10.8
		c-0.1-0.5-0.1-1-0.2-1.4c-0.1,0.2-0.2,0.5-0.3,0.7c-0.1,0.2-0.2,0.5-0.3,0.7l-4.5,10.8c-0.2,0.5-0.5,0.8-1,0.8H585L582.2,73.4z"/>
</g>
</svg>
